<?xml version="1.0" encoding="UTF-8"?>
<svg xmlns="http://www.w3.org/2000/svg" version="1.1" viewBox="0 0 512 512">
  <defs>
    <style>
      .cls-1 {
        fill: #231f20;
      }
    </style>
  </defs>
  <!-- Generator: Adobe Illustrator 28.7.1, SVG Export Plug-In . SVG Version: 1.2.0 Build 142)  -->
  <g>
    <g id="Layer_1">
      <g id="Layer_1-2" data-name="Layer_1">
        <g id="Layer_1-2">
          <path class="cls-1" d="M474.6,204.4h-19.7c-16.1,0-29.5-13.8-29.5-30.3s3.5-15.8,9.7-21.4l12.7-12.4c12.6-12.4,12.6-32.7,0-45.2l-28.9-28.6c-5.7-5.7-14.1-9.1-22.7-9.1s-16.8,3.4-22.7,9.1l-12.2,12.2c-5.8,6.5-13.6,10-22,10-16.6,0-30.4-13.5-30.4-29.4v-19.8c0-17.5-14.1-32.5-31.7-32.5h-39.3c-17.6,0-31.6,14.9-31.6,32.5v19.7c0,15.9-13.8,29.4-30.4,29.4s-15.9-3.5-21.5-9.6l-12.6-12.4c-5.7-5.8-14.1-9.1-22.7-9.1s-16.8,3.4-22.7,9.1l-29.1,28.5c-12.4,12.4-12.4,32.7,0,45l12.2,12.2c6.5,5.8,10.1,13.6,10.1,21.9,0,16.6-13.5,30.3-29.5,30.3h-19.7c-17.7,0-32.6,13.8-32.6,31.5v39.3c0,17.5,14.9,31.5,32.6,31.5h19.7c16.1,0,29.5,13.8,29.5,30.3s-3.6,16.1-10.1,21.9l-12.2,12c-12.4,12.4-12.4,32.7,0,45l28.9,28.7c5.7,5.8,14.1,9.1,22.7,9.1s16.8-3.4,22.7-9.1l12.6-12.4c5.4-6.1,13.2-9.6,21.5-9.6,16.6,0,30.4,13.5,30.4,29.4v19.7c0,17.5,14,32.5,31.7,32.5h39.3c17.6,0,31.6-14.9,31.6-32.5v-19.7c0-15.9,13.8-29.4,30.4-29.4s16.1,3.6,22,10l12.2,12.2c5.8,5.7,14.1,9.1,22.7,9.1s16.8-3.4,22.7-9.1l28.9-28.7c12.4-12.4,12.4-32.7,0-45.2l-12.7-12.4c-6.2-5.6-9.7-13.2-9.7-21.4,0-16.6,13.5-30.3,29.5-30.3h19.7c17.6,0,30.2-13.8,30.2-31.5v-39.5c.3-17.6-12.3-31.5-29.9-31.5h-.1ZM381.4,256.6h0c0,68.9-55.8,124.9-124.9,124.9s-124.9-56-124.9-124.9h0c0-68.9,55.8-124.9,124.9-124.9s124.9,56,124.9,124.9h0Z"/>
        </g>
      </g>
    </g>
  </g>
</svg>