<?xml version="1.0" encoding="UTF-8"?>
<svg xmlns="http://www.w3.org/2000/svg" version="1.1" viewBox="0 0 500 501">
  <!-- Generator: Adobe Illustrator 28.7.1, SVG Export Plug-In . SVG Version: 1.2.0 Build 142)  -->
  <g>
    <g id="Layer_1">
      <g id="Layer_1-2" data-name="Layer_1">
        <path d="M373,463c-6.577,3.758-12.908,7.455-19.474,11.234-3.046,1.753-6.945.714-8.71-2.325-4.648-8.003-9.229-15.848-13.673-23.499-1.444-2.487-4.374-3.699-7.155-2.965-13.78,3.638-27.302,7.168-41.214,10.806-2.809.735-4.774,3.274-4.774,6.177v26.788c0,3.526-2.858,6.384-6.384,6.384h-43.533c-3.526,0-6.384-2.858-6.384-6.384v-26.809c0-2.894-1.953-5.427-4.749-6.171-14.008-3.726-27.57-7.338-41.445-10.997-2.776-.732-5.703.478-7.147,2.959-4.38,7.527-8.94,15.34-13.574,23.369-1.761,3.052-5.669,4.099-8.722,2.339-12.566-7.243-24.992-14.401-37.558-21.704-3.038-1.766-4.079-5.665-2.325-8.71,4.57-7.935,8.991-15.691,13.265-23.127,1.446-2.516,1.004-5.694-1.064-7.73-10.308-10.145-20.399-20.073-30.708-30.219-2.047-2.014-5.186-2.422-7.671-.985-7.166,4.144-14.725,8.484-22.678,13.022-3.05,1.74-6.939.693-8.697-2.346-7.204-12.457-14.422-24.895-21.747-37.592-1.757-3.046-.715-6.948,2.325-8.715,7.522-4.371,14.87-8.631,21.91-12.714,2.524-1.464,3.729-4.454,2.935-7.261-3.983-14.094-7.858-27.926-11.842-42.156-.772-2.757-3.286-4.668-6.149-4.668H11.884c-3.526,0-6.384-2.858-6.384-6.384v-43.433c0-3.526,2.858-6.384,6.384-6.384h23.447c2.922,0,5.472-1.989,6.189-4.822,3.686-14.552,7.316-28.777,11.002-43.399.696-2.762-.516-5.654-2.98-7.083-6.345-3.679-13.025-7.596-19.918-11.598-3.047-1.769-4.086-5.676-2.32-8.726,7.239-12.501,14.386-24.923,21.626-37.543,1.752-3.054,5.653-4.118,8.71-2.372,6.701,3.826,13.237,7.583,19.49,11.184,2.518,1.45,5.695,1.012,7.732-1.059,10.575-10.753,20.945-21.357,31.726-32.315,2.011-2.044,2.421-5.174.99-7.659-3.446-5.984-7.06-12.327-10.812-18.883-1.747-3.053-.696-6.948,2.351-8.706,12.562-7.249,24.944-14.413,37.566-21.722,3.046-1.764,6.951-.73,8.722,2.313,3.696,6.349,7.316,12.564,10.749,18.477,1.447,2.492,4.385,3.699,7.169,2.955,14.772-3.948,29.214-7.845,44.055-11.861,2.783-.753,4.722-3.28,4.722-6.164V12.884c0-3.526,2.858-6.384,6.384-6.384h43.433c3.526,0,6.384,2.858,6.384,6.384v20.947c0,2.876,1.929,5.4,4.703,6.159,14.936,4.089,29.466,8.003,44.265,12.023,2.789.758,5.739-.444,7.192-2.941,3.39-5.825,7.009-12.037,10.745-18.467,1.767-3.041,5.666-4.08,8.714-2.323,12.576,7.249,25.013,14.413,37.589,21.722,3.036,1.765,4.076,5.657,2.329,8.703-3.737,6.519-7.42,12.974-11.163,19.453-1.502,2.6-.999,5.897,1.22,7.919,5.482,4.994,11.009,9.942,16.206,15.221,5.126,5.207,9.854,10.745,14.832,16.453,2.004,2.298,5.355,2.857,7.998,1.339,6.479-3.721,13.053-7.462,19.751-11.311,3.052-1.754,6.95-.7,8.709,2.349,7.243,12.551,14.401,24.924,21.704,37.535,1.768,3.052.723,6.967-2.331,8.732-6.922,4.003-13.637,7.906-20.053,11.679-2.44,1.435-3.643,4.305-2.957,7.052,3.619,14.492,7.244,28.717,10.931,43.342.715,2.836,3.266,4.83,6.191,4.83h23.341c3.526,0,6.384,2.858,6.384,6.384v43.533c0,3.526-2.858,6.384-6.384,6.384h-23.016c-7.3,0-6.9.1-8.6,7.1-3.318,13.18-7.037,26.2-10.798,39.852-.77,2.794.439,5.753,2.945,7.207,6.873,3.989,14.18,8.269,21.725,12.644,3.05,1.768,4.089,5.677,2.323,8.727-7.234,12.492-14.377,24.906-21.611,37.518-1.754,3.058-5.659,4.124-8.716,2.368-7.731-4.44-15.347-8.782-22.78-13.025-2.48-1.416-5.596-1.005-7.634.996-10.269,10.079-20.49,20.001-30.825,30.145-2.074,2.035-2.516,5.22-1.068,7.739,4.26,7.41,8.632,15.073,13.186,23.026,1.743,3.043.706,6.929-2.325,8.694-6.014,3.504-11.979,6.977-18.121,10.508M336,382.5c53-37.2,77.7-88.2,69.4-152.4-11.2-87.2-90.5-146.8-177.6-133.9-59.9,8.9-102.3,42.8-123.9,99.3-21.7,56.9-12.1,110.6,27.1,157.3,51,60.8,136.4,72.7,205,29.8v-.1Z" fill="#020202"/>
        <path d="M300.8,121.9c2.9-.3,4.3.4,4.1,3.2-.139,1.456-.085,2.96-.039,4.546.035,1.194-.874,2.209-2.064,2.31-8.486.722-16.244,2.636-21.697,9.844-3.244,4.235-4.783,8.957-4.836,14.313-.01,1.039.686,1.963,1.692,2.227,4.647,1.218,9.285,2.32,13.844,3.66,17.5,5.2,33.2,13.6,46.8,25.8,38.5,34.7,38.2,87.8-.7,122.1-16.5,14.5-35.9,23.4-57.2,28-.864.185-1.728.408-2.591.623-.983.244-1.675,1.116-1.717,2.128-.686,16.48,8.701,25.826,25.845,25.804,1.248-.002,2.264,1.006,2.264,2.254v6.531c0,1.248-1.012,2.26-2.26,2.26h-103.88c-1.248,0-2.26-1.012-2.26-2.26v-6.475c0-1.231.991-2.234,2.221-2.254,17.436-.28,26.59-9.467,25.615-25.713-.06-.998-.747-1.851-1.717-2.09-4.69-1.155-9.445-2.27-14.119-3.708-21.1-6.4-39.8-17-54.5-33.7-28.9-32.8-27.7-77.1,3-108.7,17.5-18,39.2-28.4,63.5-33.6.609-.111,1.249-.252,1.868-.407.898-.225,1.57-.97,1.707-1.885,1.87-12.522-7.904-22.031-25.774-24.658-1.098-.161-1.902-1.121-1.902-2.23v-5.56c0-1.248,1.012-2.26,2.26-2.26h102.54M224.2,303.5v-115.058c0-1.52-1.475-2.615-2.928-2.167-24.311,7.503-42.073,28.371-42.072,64.224-.006,35.044,22.584,61.486,42.204,66.003,1.428.329,2.796-.735,2.796-2.2v-10.903M276.1,299.5v14.126c0,1.624,1.666,2.73,3.155,2.082,21.681-9.445,41.248-29.86,41.245-65.208,0-35.679-22.516-59.978-41.596-64.526-1.429-.341-2.804.73-2.804,2.199v111.328Z" fill="#030303"/>
      </g>
    </g>
  </g>
</svg>