<?xml version="1.0" encoding="UTF-8"?>
<svg xmlns="http://www.w3.org/2000/svg" version="1.1" viewBox="0 0 512 512">
  <defs>
    <style>
      .cls-1 {
        fill: #231f20;
      }
    </style>
  </defs>
  <!-- Generator: Adobe Illustrator 28.7.1, SVG Export Plug-In . SVG Version: 1.2.0 Build 142)  -->
  <g>
    <g id="Layer_1">
      <g id="Layer_1-2" data-name="Layer_1">
        <g id="Icons">
          <path class="cls-1" d="M501.4,196.6c-1.6-9.9-11.5-14.8-19.7-14.8-21.4,3.3-42.7-6.6-54.2-27.9-11.5-18.1-9.9-42.7,3.3-59.2,4.9-6.6,4.9-18.1-1.6-23-29.6-27.9-64.1-47.7-101.9-57.5-9.9-1.6-18.1,1.6-21.4,11.5-9.9,19.7-29.6,32.9-50.9,32.9s-41.1-13.1-50.9-32.9c-3.3-9.9-13.1-14.8-21.4-11.5-37.8,11.5-72.3,31.2-101.9,59.2-6.6,4.9-6.6,16.4-1.6,23,13.1,18.1,14.8,41.1,3.3,59.2s-32.9,29.6-54.2,27.9c-9.9-1.6-18.1,4.9-19.7,14.8-4.9,18.1-6.6,37.8-6.6,57.5s1.6,39.4,6.6,59.2c1.6,9.9,11.5,14.8,19.7,13.1,21.4-3.3,42.7,6.6,54.2,27.9,11.5,18.1,9.9,42.7-3.3,59.2-4.9,6.6-4.9,18.1,1.6,23,29.6,27.9,65.7,49.3,103.5,59.2,9.9,1.6,18.1-1.6,21.4-11.5,9.9-19.7,29.6-32.9,50.9-32.9s41.1,13.1,50.9,32.9c3.3,6.6,9.9,11.5,16.4,11.5h4.9c37.8-11.5,74-32.9,103.5-59.2,6.6-6.6,6.6-16.4,1.6-23-13.1-18.1-14.8-41.1-3.3-59.2s32.9-29.6,54.2-27.9c9.9,1.6,18.1-4.9,19.7-14.8,4.9-19.7,6.6-39.4,6.6-59.2s-3.3-37.8-9.9-57.5h.2ZM177.7,298.5c6.6,6.6,6.6,18.1,0,24.7-3.3,3.3-6.6,4.9-13.1,4.9s-9.9-1.6-13.1-4.9l-54.2-54.2c-6.6-6.6-6.6-18.1,0-24.7l54.2-54.2c6.6-6.6,18.1-6.6,24.7,0s6.6,18.1,0,24.7l-41.1,41.1,41.1,41.1,1.6,1.6h0ZM307.5,191.7l-72.3,144.6c-3.3,6.6-9.9,11.5-16.4,11.5s-4.9,0-6.6-1.6c-9.9-3.3-13.1-14.8-6.6-23l72.3-144.6c3.3-9.9,14.8-13.1,23-6.6,6.6,3.3,11.5,14.8,6.6,21.4v-1.6h0ZM412.7,268.9l-54.2,54.2c-3.3,3.3-6.6,4.9-13.1,4.9s-9.9-1.6-13.1-4.9c-6.6-6.6-6.6-18.1,0-24.7l41.1-41.1-41.1-41.1c-6.6-6.6-6.6-18.1,0-24.7,6.6-6.6,18.1-6.6,24.7,0l54.2,54.2c6.6,6.6,6.6,18.1,0,24.7l1.6-1.6h-.1Z"/>
        </g>
      </g>
    </g>
  </g>
</svg>