<?xml version="1.0" encoding="UTF-8"?>
<svg xmlns="http://www.w3.org/2000/svg" version="1.1" viewBox="0 0 500 501">
  <defs>
    <style>
      .cls-1 {
        fill: #231f20;
      }
    </style>
  </defs>
  <!-- Generator: Adobe Illustrator 28.7.1, SVG Export Plug-In . SVG Version: 1.2.0 Build 142)  -->
  <g>
    <g id="Layer_1">
      <g id="Layer_1-2" data-name="Layer_1">
        <g id="Layer_1-2">
          <path class="cls-1" d="M373,463c-6.6,3.8-12.9,7.5-19.5,11.2-3,1.8-6.9.7-8.7-2.3-4.6-8-9.2-15.8-13.7-23.5-1.4-2.5-4.4-3.7-7.2-3-13.8,3.6-27.3,7.2-41.2,10.8-2.8.7-4.8,3.3-4.8,6.2v26.8c0,3.5-2.9,6.4-6.4,6.4h-43.5c-3.5,0-6.4-2.9-6.4-6.4v-26.8c0-2.9-2-5.4-4.7-6.2-14-3.7-27.6-7.3-41.4-11-2.8-.7-5.7.5-7.1,3-4.4,7.5-8.9,15.3-13.6,23.4-1.8,3.1-5.7,4.1-8.7,2.3-12.6-7.2-25-14.4-37.6-21.7-3-1.8-4.1-5.7-2.3-8.7,4.6-7.9,9-15.7,13.3-23.1,1.4-2.5,1-5.7-1.1-7.7-10.3-10.1-20.4-20.1-30.7-30.2-2-2-5.2-2.4-7.7-1-7.2,4.1-14.7,8.5-22.7,13-3,1.7-6.9.7-8.7-2.3-7.2-12.5-14.4-24.9-21.7-37.6-1.8-3-.7-6.9,2.3-8.7,7.5-4.4,14.9-8.6,21.9-12.7,2.5-1.5,3.7-4.5,2.9-7.3-4-14.1-7.9-27.9-11.8-42.2-.8-2.8-3.3-4.7-6.1-4.7H11.9c-3.5,0-6.4-2.9-6.4-6.4v-43.4c0-3.5,2.9-6.4,6.4-6.4h23.4c2.9,0,5.5-2,6.2-4.8,3.7-14.6,7.3-28.8,11-43.4.7-2.8-.5-5.7-3-7.1-6.3-3.7-13-7.6-19.9-11.6-3-1.8-4.1-5.7-2.3-8.7,7.2-12.5,14.4-24.9,21.6-37.5,1.8-3.1,5.7-4.1,8.7-2.4,6.7,3.8,13.2,7.6,19.5,11.2,2.5,1.4,5.7,1,7.7-1.1,10.6-10.8,20.9-21.4,31.7-32.3,2-2,2.4-5.2,1-7.7-3.4-6-7.1-12.3-10.8-18.9-1.7-3.1-.7-6.9,2.4-8.7,12.6-7.2,24.9-14.4,37.6-21.7,3-1.8,7-.7,8.7,2.3,3.7,6.3,7.3,12.6,10.7,18.5,1.4,2.5,4.4,3.7,7.2,3,14.8-3.9,29.2-7.8,44.1-11.9,2.8-.8,4.7-3.3,4.7-6.2V12.9c0-3.5,2.9-6.4,6.4-6.4h43.4c3.5,0,6.4,2.9,6.4,6.4v20.9c0,2.9,1.9,5.4,4.7,6.2,14.9,4.1,29.5,8,44.3,12,2.8.8,5.7-.4,7.2-2.9,3.4-5.8,7-12,10.7-18.5,1.8-3,5.7-4.1,8.7-2.3,12.6,7.2,25,14.4,37.6,21.7,3,1.8,4.1,5.7,2.3,8.7-3.7,6.5-7.4,13-11.2,19.5-1.5,2.6-1,5.9,1.2,7.9,5.5,5,11,9.9,16.2,15.2,5.1,5.2,9.9,10.7,14.8,16.5,2,2.3,5.4,2.9,8,1.3,6.5-3.7,13.1-7.5,19.8-11.3,3.1-1.8,7-.7,8.7,2.3,7.2,12.6,14.4,24.9,21.7,37.5,1.8,3.1.7,7-2.3,8.7-6.9,4-13.6,7.9-20.1,11.7-2.4,1.4-3.6,4.3-3,7.1,3.6,14.5,7.2,28.7,10.9,43.3.7,2.8,3.3,4.8,6.2,4.8h23.3c3.5,0,6.4,2.9,6.4,6.4v43.5c0,3.5-2.9,6.4-6.4,6.4h-23c-7.3,0-6.9.1-8.6,7.1-3.3,13.2-7,26.2-10.8,39.9-.8,2.8.4,5.8,2.9,7.2,6.9,4,14.2,8.3,21.7,12.6,3,1.8,4.1,5.7,2.3,8.7-7.2,12.5-14.4,24.9-21.6,37.5-1.8,3.1-5.7,4.1-8.7,2.4-7.7-4.4-15.3-8.8-22.8-13-2.5-1.4-5.6-1-7.6,1-10.3,10.1-20.5,20-30.8,30.1-2.1,2-2.5,5.2-1.1,7.7,4.3,7.4,8.6,15.1,13.2,23,1.7,3,.7,6.9-2.3,8.7-6,3.5-12,7-18.1,10.5M336,382.5c53-37.2,77.7-88.2,69.4-152.4-11.2-87.2-90.5-146.8-177.6-133.9-59.9,8.9-102.3,42.8-123.9,99.3-21.7,56.9-12.1,110.6,27.1,157.3,51,60.8,136.4,72.7,205,29.8h0Z"/>
          <path class="cls-1" d="M300.8,121.9c2.9-.3,4.3.4,4.1,3.2-.1,1.5,0,3,0,4.5,0,1.2-.9,2.2-2.1,2.3-8.5.7-16.2,2.6-21.7,9.8-3.2,4.2-4.8,9-4.8,14.3,0,1,.7,2,1.7,2.2,4.6,1.2,9.3,2.3,13.8,3.7,17.5,5.2,33.2,13.6,46.8,25.8,38.5,34.7,38.2,87.8-.7,122.1-16.5,14.5-35.9,23.4-57.2,28-.9.2-1.7.4-2.6.6-1,.2-1.7,1.1-1.7,2.1-.7,16.5,8.7,25.8,25.8,25.8,1.2,0,2.3,1,2.3,2.3v6.5c0,1.2-1,2.3-2.3,2.3h-103.9c-1.2,0-2.3-1-2.3-2.3v-6.5c0-1.2,1-2.2,2.2-2.3,17.4-.3,26.6-9.5,25.6-25.7,0-1-.7-1.9-1.7-2.1-4.7-1.2-9.4-2.3-14.1-3.7-21.1-6.4-39.8-17-54.5-33.7-28.9-32.8-27.7-77.1,3-108.7,17.5-18,39.2-28.4,63.5-33.6.6-.1,1.2-.3,1.9-.4.9-.2,1.6-1,1.7-1.9,1.9-12.5-7.9-22-25.8-24.7-1.1-.2-1.9-1.1-1.9-2.2v-5.6c0-1.2,1-2.3,2.3-2.3h102.5M224.2,303.5v-115.1c0-1.5-1.5-2.6-2.9-2.2-24.3,7.5-42.1,28.4-42.1,64.2,0,35,22.6,61.5,42.2,66,1.4.3,2.8-.7,2.8-2.2v-10.9M276.1,299.5v14.1c0,1.6,1.7,2.7,3.2,2.1,21.7-9.4,41.2-29.9,41.2-65.2,0-35.7-22.5-60-41.6-64.5-1.4-.3-2.8.7-2.8,2.2v111.3h0Z"/>
        </g>
      </g>
    </g>
  </g>
</svg>